<svg width="32" height="32" viewBox="0 0 32 32" fill="none" xmlns="http://www.w3.org/2000/svg">
<g clip-path="url(#clip0_615_281)">
<path d="M16 0C24.8366 0 32 7.16344 32 16C32 24.8366 24.8366 32 16 32C7.16344 32 0 24.8366 0 16C0 7.16344 7.16344 0 16 0ZM7.4668 18.5293V24.5332H13.4707V22.3994H9.60059V18.5293H7.4668ZM22.4004 18.5293V22.3994H18.5605V24.5332H24.5332V18.5293H22.4004ZM7.4668 7.4668V13.4395H9.60059V9.59961H13.4707V7.4668H7.4668ZM18.5605 7.4668V9.59961H22.4004V13.4395H24.5332V7.4668H18.5605Z" fill="white"/>
</g>
<defs>
<clipPath id="clip0_615_281">
<rect width="32" height="32" fill="white"/>
</clipPath>
</defs>
</svg>
