<svg width="32" height="32" viewBox="0 0 32 32" fill="none" xmlns="http://www.w3.org/2000/svg">
<g clip-path="url(#clip0_614_170)">
<path d="M32 16C32 18.6616 29.8423 20.8193 27.1807 20.8193L20.8193 20.8193L20.8193 27.1807C20.8193 29.8423 18.6616 32 16 32C13.3384 32 11.1807 29.8423 11.1807 27.1807V20.8193H4.81934C2.15772 20.8193 3.22128e-07 18.6616 0 16C0 13.3384 2.15772 11.1807 4.81934 11.1807L11.1807 11.1807L11.1807 4.81934C11.1807 2.15772 13.3384 3.22128e-07 16 0C18.6616 0 20.8193 2.15772 20.8193 4.81934V11.1807L27.1807 11.1807C29.8423 11.1807 32 13.3384 32 16ZM26.4092 12.916V19.084L29.8799 16L26.4092 12.916Z" fill="white"/>
</g>
<defs>
<clipPath id="clip0_614_170">
<rect width="32" height="32" fill="white"/>
</clipPath>
</defs>
</svg>
