<svg width="32" height="32" viewBox="0 0 32 32" fill="none" xmlns="http://www.w3.org/2000/svg">
<g clip-path="url(#clip0_614_138)">
<path d="M27.1807 11.1807C29.8423 11.1807 32 13.3384 32 16V16C32 18.6616 29.8423 20.8193 27.1807 20.8193H20.8193V27.1807C20.8193 29.8423 18.6616 32 16 32V32C13.3384 32 11.1807 29.8423 11.1807 27.1807V20.8193H4.81928C2.15766 20.8193 0 18.6616 0 16V16C0 13.3384 2.15766 11.1807 4.81928 11.1807H11.1807V4.81928C11.1807 2.15766 13.3384 0 16 0V0C18.6616 0 20.8193 2.15766 20.8193 4.81928V11.1807H27.1807Z" fill="white"/>
</g>
<defs>
<clipPath id="clip0_614_138">
<rect width="32" height="32" fill="white"/>
</clipPath>
</defs>
</svg>
