<svg width="32" height="32" viewBox="0 0 32 32" fill="none" xmlns="http://www.w3.org/2000/svg">
<g clip-path="url(#clip0_614_76)">
<path d="M16 0C24.8366 0 32 7.16344 32 16C32 24.8366 24.8366 32 16 32C7.16344 32 0 24.8366 0 16C0 7.16344 7.16344 0 16 0ZM27.1562 10.7031C23.5883 8.97344 19.6041 8.25547 15.6475 8.62988C11.6909 9.0043 7.91729 10.456 4.74707 12.8232C4.62044 12.912 4.53096 13.0439 4.49609 13.1934C4.46128 13.3426 4.48321 13.4994 4.55762 13.6338L6.64062 18.1846C6.76548 18.4964 7.14512 18.6828 7.46094 18.5586C9.79675 17.6855 13.394 16.8139 17.0566 17.3125C14.5319 17.7485 12.5743 18.6201 10.9961 19.5557C10.8698 19.6443 10.78 19.7757 10.7451 19.9248C10.7103 20.0739 10.7325 20.2309 10.8066 20.3652L12.0693 23.2334C12.1962 23.4825 12.5112 23.5451 12.7012 23.3584C13.1336 22.9236 13.6212 22.5456 14.1523 22.2354C16.1723 21.113 18.9499 20.241 22.6738 20.4277C22.813 20.4337 22.9503 20.3943 23.0645 20.3154C23.1786 20.2366 23.2636 20.1233 23.3057 19.9922L24.252 17.1865C24.3784 16.9373 24.2522 16.5637 24 16.4395C20.0189 14.1226 15.3275 13.2976 10.7832 14.1133C13.1559 13.0468 15.7397 12.5157 18.3467 12.5586C20.9682 12.6017 23.5467 13.2246 25.8926 14.3809C26.146 14.5685 26.5244 14.3811 26.5879 14.1318L27.4717 11.4521C27.5984 11.2028 27.4711 10.8283 27.1562 10.7031Z" fill="white"/>
</g>
<defs>
<clipPath id="clip0_614_76">
<rect width="32" height="32" fill="white"/>
</clipPath>
</defs>
</svg>
