<svg width="32" height="32" viewBox="0 0 32 32" fill="none" xmlns="http://www.w3.org/2000/svg">
<path fill-rule="evenodd" clip-rule="evenodd" d="M32 14.1645C32 22.9102 24.8366 30 16 30C7.16344 30 1.0607e-07 22.9102 0 14.1645V1H32V14.1645ZM10.8102 12.0658V18.7434H15.3404V17.4843H12.227V12.0658H10.8102ZM18.4386 11.9514C17.5969 11.9514 16.8418 12.1675 16.1736 12.6L16.6651 13.6588C17.1342 13.3599 17.6482 13.2105 18.2073 13.2105C18.6121 13.2105 18.9334 13.2932 19.1711 13.4585C19.4153 13.6175 19.5375 13.8688 19.5375 14.2122C19.5375 14.3648 19.5149 14.5048 19.4699 14.6319C19.4249 14.7528 19.3382 14.8863 19.2097 15.0325C19.0876 15.1724 18.9752 15.2902 18.8724 15.3856C18.7696 15.4746 18.6025 15.6178 18.3712 15.8149C18.2877 15.8848 18.2201 15.942 18.1687 15.9865L16.2892 17.5797V18.7434H21.2724V17.4843H18.1399L19.4603 16.3967C20.0193 15.9261 20.4275 15.5128 20.6845 15.1566C20.9415 14.7941 21.07 14.387 21.07 13.9355C21.07 13.2995 20.8322 12.8098 20.3567 12.4664C19.8812 12.123 19.2418 11.9514 18.4386 11.9514Z" fill="url(#paint0_linear_614_267)"/>
<defs>
<linearGradient id="paint0_linear_614_267" x1="20.5" y1="1" x2="1" y2="20.5" gradientUnits="userSpaceOnUse">
<stop offset="0.535934" stop-color="white"/>
<stop offset="0.535934" stop-color="white" stop-opacity="0.5"/>
</linearGradient>
</defs>
</svg>
