<svg width="32" height="32" viewBox="0 0 32 32" fill="none" xmlns="http://www.w3.org/2000/svg">
<path d="M12.9569 13.3017C13.4066 13.3017 13.7311 13.3864 13.9303 13.5557C14.1295 13.7185 14.2293 13.9661 14.2293 14.2982C14.2293 14.6369 14.1232 14.9041 13.9111 15.0995C13.7055 15.2883 13.4164 15.3828 13.0437 15.3828H11.9352V13.3017H12.9569Z" fill="white"/>
<path fill-rule="evenodd" clip-rule="evenodd" d="M32 24H0V7H32V24ZM10.5184 12.0805V18.9195H11.9352V16.6138H12.9377L13.0919 16.6041L14.4605 18.9195H16.0316L14.4413 16.3305C15.3087 15.9462 15.7424 15.2395 15.7425 14.2104C15.7425 13.5461 15.5239 13.025 15.087 12.6472C14.65 12.2694 13.969 12.0805 13.0437 12.0805H10.5184ZM19.0376 12.061L16.7534 13.2235L17.2737 14.269L18.6907 13.6828V17.62H17.2255V18.9195H21.5727V17.62H20.1269V12.061H19.0376Z" fill="white"/>
</svg>
