<svg width="32" height="32" viewBox="0 0 32 32" fill="none" xmlns="http://www.w3.org/2000/svg">
<path d="M12.6001 13.2582C13.0452 13.2582 13.3664 13.3409 13.5636 13.5062C13.7607 13.6652 13.8594 13.9069 13.8594 14.2312C13.8594 14.5619 13.7544 14.8227 13.5446 15.0135C13.3411 15.1979 13.0549 15.2902 12.686 15.2902H11.589V13.2582H12.6001Z" fill="white"/>
<path fill-rule="evenodd" clip-rule="evenodd" d="M31.6711 14.1645C31.6711 22.9102 24.5812 30 15.8355 30C7.08981 30 1.04979e-07 22.9102 0 14.1645V1H31.6711V14.1645ZM10.1867 12.0658V18.7434H11.589V16.4921H12.5811L12.7337 16.4826L14.0882 18.7434H15.6432L14.0692 16.2155C14.9278 15.8403 15.357 15.1503 15.3571 14.1455C15.3571 13.4968 15.1408 12.988 14.7083 12.6192C14.2758 12.2503 13.6018 12.0658 12.686 12.0658H10.1867ZM18.7615 11.9514C17.9284 11.9514 17.1811 12.1675 16.5197 12.6L17.0062 13.6588C17.4704 13.3599 17.9792 13.2105 18.5325 13.2105C18.9331 13.2105 19.2511 13.2932 19.4864 13.4585C19.7281 13.6175 19.849 13.8688 19.849 14.2122C19.849 14.3648 19.8266 14.5048 19.7821 14.6319C19.7376 14.7528 19.6518 14.8863 19.5246 15.0325C19.4038 15.1724 19.2925 15.2902 19.1907 15.3856C19.089 15.4746 18.9237 15.6178 18.6948 15.8149C18.6121 15.8848 18.5452 15.942 18.4943 15.9865L16.6341 17.5797V18.7434H21.5661V17.4843H18.4658L19.7726 16.3967C20.3259 15.9261 20.7298 15.5128 20.9842 15.1566C21.2386 14.7941 21.3658 14.387 21.3658 13.9355C21.3658 13.2995 21.1305 12.8098 20.6599 12.4664C20.1892 12.123 19.5564 11.9514 18.7615 11.9514Z" fill="white"/>
</svg>
