<svg width="32" height="32" viewBox="0 0 32 32" fill="none" xmlns="http://www.w3.org/2000/svg">
<path d="M24.1123 8C28.4684 8 32 11.5316 32 15.8877C31.9998 20.2436 28.4682 23.7744 24.1123 23.7744H7.8877C3.53177 23.7744 0.000200695 20.2436 0 15.8877C0 11.5316 3.53165 8 7.8877 8H24.1123ZM8.78906 13.6338C7.54448 13.6338 6.53516 14.6431 6.53516 15.8877C6.53536 17.1321 7.5446 18.1406 8.78906 18.1406C10.0334 18.1404 11.0418 17.132 11.042 15.8877C11.042 14.6432 10.0335 13.634 8.78906 13.6338ZM16 13.6338C14.7554 13.6338 13.7461 14.6431 13.7461 15.8877C13.7463 17.1321 14.7555 18.1406 16 18.1406C17.2445 18.1406 18.2537 17.1321 18.2539 15.8877C18.2539 14.6431 17.2446 13.6338 16 13.6338ZM23.2109 13.6338C21.9665 13.634 20.958 14.6432 20.958 15.8877C20.9582 17.132 21.9666 18.1404 23.2109 18.1406C24.4554 18.1406 25.4646 17.1321 25.4648 15.8877C25.4648 14.6431 24.4555 13.6338 23.2109 13.6338Z" fill="white"/>
</svg>
