<svg width="918" height="594" viewBox="0 0 918 594" fill="none" xmlns="http://www.w3.org/2000/svg">
<path d="M277.659 19.0203V8.80412C277.659 5.28353 274.981 2.37135 271.463 2.2282C251.217 1.4071 185.955 1.25988 144.87 30.1925C143.137 31.4134 142.153 33.4217 142.153 35.5424V55.1986" stroke="#8A9199" stroke-width="3" stroke-miterlimit="10"/>
<path d="M640.761 19.0203V8.80412C640.761 5.28353 643.439 2.37135 646.956 2.2282C667.203 1.4071 732.465 1.25988 773.549 30.1925C775.282 31.4134 776.266 33.4217 776.266 35.5424V55.1986" stroke="#8A9199" stroke-width="3" stroke-miterlimit="10"/>
<path d="M914.54 482.078C897.311 351.194 860.867 209.131 828.392 124.287C796.582 38.7856 712.419 21.6858 633.557 21.6858H284.314C205.452 21.6858 121.29 38.7856 89.4796 124.287C57.6706 209.789 21.2213 351.194 3.32903 482.078C-6.61205 547.191 41.1025 586.653 83.5152 591.257C125.928 595.86 176.956 580.076 202.139 515.621C227.321 451.823 237.925 397.234 290.94 397.234C336.005 397.234 581.204 397.234 626.267 397.234C679.284 397.234 689.887 451.823 715.069 515.621C740.252 579.418 791.28 595.86 833.688 591.257C876.103 586.653 924.479 547.191 914.54 482.078Z" stroke="#8A9199" stroke-width="3" stroke-miterlimit="10"/>
<path d="M260.597 149.615H234.182C232.311 149.615 230.796 148.1 230.796 146.231V119.815C230.796 107.234 220.2 96.6387 207.618 96.6387C195.036 96.6387 184.44 107.234 184.44 119.815V146.231C184.44 148.1 182.925 149.615 181.056 149.615H154.641C142.058 149.615 131.463 160.211 131.463 172.793C131.463 185.375 142.058 195.971 154.641 195.971H181.056C182.925 195.971 184.44 197.486 184.44 199.355V225.77C184.44 238.353 195.036 248.948 207.618 248.948C220.2 248.948 230.796 238.353 230.796 225.77V199.355C230.796 197.486 232.311 195.971 234.182 195.971H260.597C273.179 195.971 283.774 185.375 283.774 172.793C283.774 160.211 273.841 149.615 260.597 149.615Z" stroke="#8A9199" stroke-width="2" stroke-miterlimit="10"/>
<path d="M323.92 358.235C353.829 358.235 378.076 333.989 378.076 304.08C378.076 274.172 353.829 249.926 323.92 249.926C294.011 249.926 269.766 274.172 269.766 304.08C269.766 333.989 294.011 358.235 323.92 358.235Z" stroke="#8A9199" stroke-width="3" stroke-miterlimit="10"/>
<path d="M323.538 344.697C345.969 344.697 364.154 326.512 364.154 304.08C364.154 281.649 345.969 263.464 323.538 263.464C301.105 263.464 282.921 281.649 282.921 304.08C282.921 326.512 301.105 344.697 323.538 344.697Z" stroke="#8A9199" stroke-width="4.9651" stroke-miterlimit="10"/>
<path d="M458.927 334.543C475.751 334.543 489.39 320.904 489.39 304.08C489.39 287.257 475.751 273.619 458.927 273.619C442.105 273.619 428.466 287.257 428.466 304.08C428.466 320.904 442.105 334.543 458.927 334.543Z" stroke="#8A9199" stroke-width="3.31006" stroke-miterlimit="10"/>
<path d="M442.695 299.882C456.871 289.906 469.689 294.117 475.092 296.755V296.756C475.3 296.858 475.399 297.096 475.327 297.313V297.314L474.027 301.215C473.982 301.35 473.843 301.422 473.713 301.391L473.658 301.371L473.222 301.163C468.609 299.009 460.355 296.66 450.954 300.893L450.931 300.902L451.184 301.862C460.168 300.655 466.331 302.775 470.31 305.29V305.291C470.486 305.402 470.565 305.621 470.498 305.822L469.108 309.99C469.043 310.185 468.855 310.313 468.65 310.302C463.056 310.007 458.892 311.295 455.864 313.053C455.289 313.387 454.593 313.861 453.931 314.498L453.65 314.781C453.615 314.818 453.551 314.809 453.529 314.759C453.199 314.003 452.732 312.934 452.348 312.054C452.156 311.614 451.985 311.221 451.861 310.939C451.799 310.798 451.75 310.683 451.716 310.605C451.699 310.566 451.685 310.535 451.677 310.515C451.672 310.505 451.668 310.497 451.666 310.491C451.665 310.489 451.664 310.487 451.664 310.486C451.585 310.303 451.633 310.093 451.776 309.963L451.844 309.913C454.071 308.547 456.973 307.272 460.589 306.659L460.577 305.671C455.361 304.918 450.337 306.072 446.836 307.279L446.156 307.52C445.93 307.602 445.68 307.496 445.582 307.276V307.275L442.545 300.442C442.456 300.242 442.52 300.007 442.696 299.883L442.695 299.882Z" fill="#8A9199" stroke="#8A9199"/>
<path d="M594.314 358.234C624.223 358.234 648.469 333.988 648.469 304.079C648.469 274.171 624.223 249.926 594.314 249.926C564.406 249.926 540.16 274.171 540.16 304.079C540.16 333.988 564.406 358.234 594.314 358.234Z" stroke="#8A9199" stroke-width="3" stroke-miterlimit="10"/>
<path d="M594.712 345.113C617.143 345.113 635.328 326.929 635.328 304.497C635.328 282.067 617.143 263.882 594.712 263.882C572.281 263.882 554.096 282.067 554.096 304.497C554.096 326.929 572.281 345.113 594.712 345.113Z" stroke="#8A9199" stroke-width="4.9651" stroke-miterlimit="10"/>
<path d="M367.881 123.997C376.975 123.997 384.466 116.279 384.466 107.074C384.466 97.8667 376.975 90.1506 367.881 90.1506H343.511C334.418 90.1506 326.927 97.8667 326.927 107.074C326.927 116.279 334.418 123.997 343.511 123.997H367.881Z" stroke="#8A9199" stroke-width="2" stroke-miterlimit="10"/>
<path d="M345.543 104.04C347.136 104.04 348.428 105.332 348.428 106.925C348.428 108.517 347.136 109.809 345.543 109.809C343.95 109.809 342.658 108.518 342.658 106.925C342.658 105.332 343.95 104.04 345.543 104.04Z" fill="#8A9199" stroke="#8A9199"/>
<path d="M355.697 104.04C357.29 104.04 358.582 105.332 358.582 106.925C358.581 108.517 357.29 109.809 355.697 109.809C354.104 109.809 352.812 108.518 352.812 106.925C352.812 105.332 354.104 104.04 355.697 104.04Z" fill="#8A9199" stroke="#8A9199"/>
<path d="M365.85 104.04C367.443 104.04 368.735 105.332 368.735 106.925C368.735 108.517 367.443 109.809 365.85 109.809C364.257 109.809 362.966 108.518 362.966 106.925C362.966 105.332 364.257 104.04 365.85 104.04Z" fill="#8A9199" stroke="#8A9199"/>
<path d="M394.62 194.105C405.836 194.105 414.928 185.012 414.928 173.797C414.928 162.581 405.836 153.489 394.62 153.489C383.404 153.489 374.312 162.581 374.312 173.797C374.312 185.012 383.404 194.105 394.62 194.105Z" stroke="#8A9199" stroke-width="2" stroke-miterlimit="10"/>
<path d="M399.556 177.233C400.377 177.233 401.065 177.518 401.646 178.099C402.227 178.679 402.511 179.367 402.511 180.188C402.511 181.009 402.227 181.697 401.646 182.278C401.065 182.858 400.377 183.143 399.556 183.143C398.734 183.143 398.047 182.858 397.466 182.278C396.886 181.697 396.601 181.01 396.601 180.188C396.601 179.366 396.885 178.679 397.465 178.099H397.466C398.047 177.518 398.734 177.233 399.556 177.233ZM389.684 164.399C391.198 164.399 392.469 164.924 393.526 165.981C394.583 167.037 395.107 168.309 395.107 169.823C395.107 171.337 394.583 172.608 393.526 173.665C392.469 174.721 391.198 175.246 389.684 175.246C388.17 175.246 386.9 174.721 385.842 173.665C384.786 172.608 384.261 171.337 384.261 169.823C384.261 168.308 384.785 167.036 385.841 165.98C386.899 164.923 388.17 164.399 389.684 164.399ZM399.556 170.323C400.247 170.323 400.819 170.56 401.3 171.041C401.781 171.521 402.017 172.093 402.017 172.784C402.017 173.476 401.781 174.048 401.3 174.529C400.819 175.01 400.247 175.246 399.556 175.246C398.864 175.246 398.293 175.009 397.812 174.529C397.331 174.048 397.094 173.476 397.094 172.784C397.094 172.093 397.331 171.521 397.812 171.041C398.293 170.56 398.864 170.323 399.556 170.323ZM403.999 168.348C404.273 168.348 404.487 168.441 404.671 168.636L404.681 168.646L404.692 168.656C404.886 168.839 404.979 169.054 404.979 169.329C404.979 169.571 404.907 169.775 404.752 169.959L404.681 170.037C404.499 170.218 404.283 170.309 403.999 170.309C403.719 170.309 403.493 170.221 403.293 170.039C403.107 169.837 403.017 169.61 403.017 169.329C403.017 169.044 403.109 168.827 403.291 168.646C403.495 168.441 403.723 168.348 403.999 168.348Z" fill="#8A9199" stroke="#8A9199"/>
<path d="M522.701 194.105C533.917 194.105 543.009 185.013 543.009 173.796C543.009 162.581 533.917 153.489 522.701 153.489C511.486 153.489 502.393 162.581 502.393 173.796C502.393 185.013 511.486 194.105 522.701 194.105Z" stroke="#8A9199" stroke-width="2" stroke-miterlimit="10"/>
<path d="M530.775 176.904V182.156H525.556V180.935H529.554V176.904H530.775ZM515.227 176.904V180.935H519.257V182.156H514.005V176.904H515.227ZM530.775 165.387V170.605H529.554V166.607H525.556V165.387H530.775ZM519.257 165.387V166.607H515.227V170.605H514.005V165.387H519.257Z" fill="#8A9199" stroke="#8A9199"/>
<path d="M574.239 123.997C583.332 123.997 590.823 116.279 590.823 107.074C590.823 97.8667 583.332 90.1506 574.239 90.1506H549.87C540.776 90.1506 533.284 97.8667 533.284 107.074C533.284 116.279 540.776 123.997 549.87 123.997H574.239Z" stroke="#8A9199" stroke-width="2" stroke-miterlimit="10"/>
<path d="M572.448 112.459V113.617H551.872V112.459H572.448ZM572.448 106.345V107.503H551.872V106.345H572.448ZM572.448 100.232V101.389H551.872V100.232H572.448Z" fill="#8A9199" stroke="#8A9199"/>
<path d="M718.488 258.387C734.377 258.387 747.257 245.508 747.257 229.618C747.257 213.729 734.377 200.848 718.488 200.848C702.599 200.848 689.718 213.729 689.718 229.618C689.718 245.508 702.599 258.387 718.488 258.387Z" stroke="#8A9199" stroke-width="2" stroke-miterlimit="10"/>
<path d="M720.454 220.038L727.413 238.426H725.211L723.543 233.775L723.424 233.444H714.815L714.696 233.775L713.028 238.426H710.826L717.76 220.038H720.454ZM718.564 222.875L717.837 225.082L715.699 231.012L715.457 231.682H722.783L722.542 231.012L720.402 225.082L719.675 222.875L719.562 222.531H718.677L718.564 222.875Z" fill="#8A9199" stroke="#8A9199"/>
<path d="M661.161 200.785C677.051 200.785 689.93 187.904 689.93 172.015C689.93 156.126 677.051 143.246 661.161 143.246C645.272 143.246 632.391 156.126 632.391 172.015C632.391 187.904 645.272 200.785 661.161 200.785Z" stroke="#8A9199" stroke-width="2" stroke-miterlimit="10"/>
<path d="M656.509 162.499L660.668 169.222L660.815 169.458H661.534L661.681 169.223L665.867 162.499H668.297L662.759 171.042L662.583 171.314L662.758 171.585L668.736 180.887H666.297L661.679 173.566L661.532 173.332H660.818L660.67 173.566L656.051 180.887H653.615L659.592 171.585L659.766 171.314L659.591 171.042L654.053 162.499H656.509Z" fill="#8A9199" stroke="#8A9199"/>
<path d="M718.488 143.309C734.377 143.309 747.257 130.428 747.257 114.54C747.257 98.6511 734.377 85.7703 718.488 85.7703C702.599 85.7703 689.718 98.6511 689.718 114.54C689.718 130.428 702.599 143.309 718.488 143.309Z" stroke="#8A9199" stroke-width="2" stroke-miterlimit="10"/>
<path d="M717.79 114.639L717.712 114.517L711.643 104.885H713.975L718.243 111.955L718.388 112.197H719.119L719.264 111.95L723.424 104.885H725.787L719.816 114.52L719.742 114.641V123.273H717.79V114.639Z" fill="#8A9199" stroke="#8A9199"/>
<path d="M776.239 200.785C792.129 200.785 805.009 187.904 805.009 172.015C805.009 156.126 792.129 143.246 776.239 143.246C760.351 143.246 747.47 156.126 747.47 172.015C747.47 187.904 760.351 200.785 776.239 200.785Z" stroke="#8A9199" stroke-width="2" stroke-miterlimit="10"/>
<path d="M777.637 162.499C778.506 162.499 779.292 162.66 780.003 162.975L780.303 163.119C781.098 163.534 781.718 164.091 782.173 164.79L782.178 164.797C782.644 165.487 782.877 166.265 782.877 167.145C782.877 168.052 782.657 168.797 782.236 169.405C781.799 170.035 781.235 170.51 780.54 170.833L780.25 170.968V171.783L780.593 171.898C781.476 172.191 782.186 172.693 782.739 173.406C783.278 174.105 783.555 174.943 783.555 175.945C783.555 176.936 783.299 177.783 782.803 178.503L782.799 178.51C782.37 179.153 781.803 179.681 781.087 180.093L780.772 180.262C779.925 180.677 778.992 180.887 777.962 180.887H770.88V162.499H777.637ZM772.859 179.124H777.962C778.681 179.124 779.332 178.975 779.891 178.652C780.433 178.339 780.851 177.914 781.132 177.379L781.133 177.38C781.425 176.86 781.576 176.306 781.576 175.728C781.576 175.122 781.428 174.559 781.132 174.048H781.133C780.832 173.51 780.391 173.085 779.831 172.773H779.83C779.268 172.45 778.601 172.303 777.854 172.303H772.859V179.124ZM772.859 170.65H777.502C778.201 170.65 778.824 170.509 779.351 170.202L779.357 170.199C779.873 169.889 780.283 169.486 780.564 168.988L780.568 168.981C780.839 168.48 780.98 167.956 780.98 167.414C780.98 166.881 780.842 166.378 780.571 165.911H780.572C780.309 165.407 779.914 165.005 779.405 164.708C778.882 164.386 778.278 164.235 777.611 164.235H772.859V170.65Z" fill="#8A9199" stroke="#8A9199"/>
</svg>
